<?xml version="1.0" encoding="UTF-8" standalone="no"?>
<!DOCTYPE svg PUBLIC "-//W3C//DTD SVG 1.1//EN"
 "http://www.w3.org/Graphics/SVG/1.1/DTD/svg11.dtd">
<!-- Generated by graphviz version 2.30.1 (20180420.1509)
 -->
<!-- Title: G Pages: 1 -->
<svg width="406pt" height="266pt"
 viewBox="0.00 0.00 406.00 266.00" xmlns="http://www.w3.org/2000/svg" xmlns:xlink="http://www.w3.org/1999/xlink">
<g id="graph0" class="graph" transform="scale(1 1) rotate(0) translate(4 262)">
<title>G</title>
<polygon fill="white" stroke="white" points="-4,5 -4,-262 403,-262 403,5 -4,5"/>
<!-- c81898 -->
<g id="node1" class="node"><title>c81898</title>
<g id="a_node1"><a xlink:href="null" xlink:title="&lt;TABLE&gt;">
<polygon fill="none" stroke="black" points="82,-134 82,-153 180,-153 180,-134 82,-134"/>
<text text-anchor="start" x="86" y="-141.5" font-family="Helvetica,sans-Serif" font-size="10.00"> Structural Things </text>
</a>
</g>
</g>
<!-- c81899 -->
<g id="node3" class="node"><title>c81899</title>
<g id="a_node3"><a xlink:href="null" xlink:title="&lt;TABLE&gt;">
<polygon fill="none" stroke="black" points="24,-52 24,-71 134,-71 134,-52 24,-52"/>
<text text-anchor="start" x="54" y="-59.5" font-family="Helvetica,sans-Serif" font-size="10.00"> Counters </text>
<polygon fill="none" stroke="black" points="24,-34 24,-52 134,-52 134,-34 24,-34"/>
<text text-anchor="start" x="28" y="-41" font-family="Helvetica,sans-Serif" font-size="10.00"> + counter : int </text>
<polygon fill="none" stroke="black" points="24,-4 24,-34 134,-34 134,-4 24,-4"/>
<text text-anchor="start" x="28" y="-23" font-family="Helvetica,sans-Serif" font-size="10.00"> ~ Counters() </text>
<text text-anchor="start" x="28" y="-11" font-family="Helvetica,sans-Serif" font-size="10.00"> + getCounter() : int </text>
</a>
</g>
</g>
<!-- c81898&#45;&gt;c81899 -->
<g id="edge4" class="edge"><title>c81898:p&#45;&gt;c81899:p</title>
<path fill="none" stroke="black" d="M122.265,-125.529C114.931,-110.862 104.254,-89.5077 95.3416,-71.6833"/>
<polygon fill="none" stroke="black" points="119.142,-127.11 126.745,-134.489 125.403,-123.98 119.142,-127.11"/>
</g>
<!-- n0cc81898 -->
<g id="node2" class="node"><title>n0cc81898</title>
<polygon fill="none" stroke="black" points="185,-257.5 71,-257.5 71,-212.5 191,-212.5 191,-251.5 185,-257.5"/>
<polyline fill="none" stroke="black" points="185,-257.5 185,-251.5 "/>
<polyline fill="none" stroke="black" points="191,-251.5 185,-251.5 "/>
<text text-anchor="start" x="82" y="-242.5" font-family="Helvetica,sans-Serif" font-size="10.00"> Notes can </text>
<text text-anchor="start" x="82" y="-232.5" font-family="Helvetica,sans-Serif" font-size="10.00">be extended to </text>
<text text-anchor="start" x="82" y="-222.5" font-family="Helvetica,sans-Serif" font-size="10.00">span multiple lines </text>
</g>
<!-- n0cc81898&#45;&gt;c81898 -->
<g id="edge1" class="edge"><title>n0cc81898&#45;&gt;c81898:p</title>
<path fill="none" stroke="black" d="M131,-212.456C131,-193.524 131,-166.959 131,-153.514"/>
</g>
<!-- n0cc81899 -->
<g id="node4" class="node"><title>n0cc81899</title>
<polygon fill="none" stroke="black" points="50,-162 -3.55271e-15,-162 -3.55271e-15,-126 56,-126 56,-156 50,-162"/>
<polyline fill="none" stroke="black" points="50,-162 50,-156 "/>
<polyline fill="none" stroke="black" points="56,-156 50,-156 "/>
<text text-anchor="start" x="11" y="-141.5" font-family="Helvetica,sans-Serif" font-size="10.00"> Class </text>
</g>
<!-- n0cc81899&#45;&gt;c81899 -->
<g id="edge2" class="edge"><title>n0cc81899&#45;&gt;c81899:p</title>
<path fill="none" stroke="black" d="M36.4216,-125.827C43.6077,-111.172 54.1428,-89.6892 62.9355,-71.759"/>
</g>
<!-- c81900 -->
<g id="node5" class="node"><title>c81900</title>
<g id="a_node5"><a xlink:href="null" xlink:title="&lt;TABLE&gt;">
<polygon fill="none" stroke="black" points="257,-116 257,-171 264,-171 264,-116 257,-116"/>
<polygon fill="none" stroke="black" points="264,-152 264,-171 375,-171 375,-152 264,-152"/>
<text text-anchor="start" x="277.5" y="-159.5" font-family="Helvetica,sans-Serif" font-size="10.00"> RunningCounter </text>
<polygon fill="none" stroke="black" points="375,-116 375,-171 381,-171 381,-116 375,-116"/>
<polygon fill="none" stroke="black" points="264,-134 264,-152 375,-152 375,-134 264,-134"/>
<text text-anchor="start" x="268" y="-141" font-family="Helvetica,sans-Serif" font-size="10.00"> &#160;</text>
<polygon fill="none" stroke="black" points="264,-116 264,-134 375,-134 375,-116 264,-116"/>
<text text-anchor="start" x="268" y="-123" font-family="Helvetica,sans-Serif" font-size="10.00"> ~ RunningCounter() </text>
</a>
</g>
</g>
<!-- n0cc81900 -->
<g id="node6" class="node"><title>n0cc81900</title>
<polygon fill="none" stroke="black" points="304,-253 220,-253 220,-217 310,-217 310,-247 304,-253"/>
<polyline fill="none" stroke="black" points="304,-253 304,-247 "/>
<polyline fill="none" stroke="black" points="310,-247 304,-247 "/>
<text text-anchor="start" x="231" y="-232.5" font-family="Helvetica,sans-Serif" font-size="10.00"> Active Class </text>
</g>
<!-- n0cc81900&#45;&gt;c81900 -->
<g id="edge3" class="edge"><title>n0cc81900&#45;&gt;c81900:p</title>
<path fill="none" stroke="black" d="M275.412,-216.84C283.196,-204.01 293.985,-186.229 302.881,-171.567"/>
</g>
<!-- c81901 -->
<g id="node7" class="node"><title>c81901</title>
<g id="a_node7_0"><a xlink:href="http://java.sun.com/j2se/1.4.2/docs/api//Counter.html" xlink:title="Counter">
<polygon fill="none" stroke="black" points="336,-225 336,-244 390,-244 390,-225 336,-225"/>
<text text-anchor="start" x="340.5" y="-232.5" font-family="Helvetica,sans-Serif" font-size="10.00"> Counter </text>
</a>
</g>
</g>
<!-- c81901&#45;&gt;c81900 -->
<g id="edge5" class="edge"><title>c81901:p&#45;&gt;c81900:p</title>
<path fill="none" stroke="black" d="M354.297,-216.395C347.99,-203.64 339.351,-186.165 332.199,-171.697"/>
<polygon fill="none" stroke="black" points="351.212,-218.053 358.781,-225.466 357.487,-214.951 351.212,-218.053"/>
</g>
</g>

<g transform="translate(0.000000,17.000000) scale(0.100000,-0.100000)"
fill="#000000" stroke="none">
<path d="M21 157 c-29 -35 -16 -97 20 -97 15 0 19 -5 15 -16 -3 -9 -6 -20 -6
-25 0 -5 -4 -9 -10 -9 -14 0 -12 27 3 33 6 3 2 6 -10 6 -30 1 -31 -35 -3 -44
28 -9 47 9 55 51 3 20 9 42 12 50 3 8 -1 14 -11 14 -9 0 -16 -8 -16 -19 0 -26
-15 -34 -30 -16 -13 16 -6 48 16 70 14 13 13 15 -4 15 -11 0 -25 -6 -31 -13z"/>
<path d="M80 150 c0 -13 5 -20 13 -17 6 2 12 10 12 17 0 7 -6 15 -12 18 -8 2
-13 -5 -13 -18z"/>
<path d="M347 164 c-13 -13 -7 -24 14 -24 11 0 19 5 17 12 -5 14 -22 21 -31
12z"/>
<path d="M103 85 c-9 -40 -8 -45 8 -45 13 0 19 9 21 33 2 24 7 31 21 29 10 -2
17 3 17 13 0 10 -9 15 -28 15 -26 0 -30 -5 -39 -45z"/>
<path d="M175 101 c-24 -48 -13 -59 64 -60 63 -1 69 1 79 25 15 31 15 64 1 64
-6 0 -8 -8 -5 -18 4 -10 -1 -27 -10 -38 -14 -18 -15 -17 -9 19 5 29 3 37 -9
37 -9 0 -18 -13 -22 -35 -3 -19 -10 -35 -14 -35 -4 0 -4 16 0 35 8 35 8 35
-26 35 -27 0 -36 -6 -49 -29z m47 -6 c-5 -28 -22 -44 -22 -21 0 21 11 46 20
46 4 0 5 -11 2 -25z"/>
<path d="M340 116 c0 -7 -3 -28 -6 -45 -6 -26 -3 -31 13 -31 10 0 25 6 32 12
11 10 13 10 7 1 -5 -9 3 -13 28 -13 25 0 36 4 36 15 0 8 -4 15 -10 15 -5 0
-10 -4 -10 -10 0 -5 -5 -10 -11 -10 -6 0 -2 12 9 28 36 51 36 52 -2 52 -25 0
-36 -4 -36 -15 0 -8 5 -15 10 -15 6 0 10 5 10 12 0 6 3 9 6 6 9 -10 -19 -46
-39 -52 -17 -4 -18 -1 -13 30 6 27 4 34 -9 34 -8 0 -15 -6 -15 -14z"/>
<path d="M472 118 c-7 -7 -12 -27 -12 -46 0 -30 2 -33 27 -30 17 2 32 12 39
27 7 13 18 28 26 33 10 8 9 8 -4 4 -12 -3 -18 0 -18 9 0 18 -41 20 -58 3z m29
-51 c-13 -13 -15 11 -4 40 7 16 8 15 11 -6 2 -13 -1 -28 -7 -34z"/>
</g>
</svg>
